# MagicaVoxel @ Ephtracy

# material
mtllib anothertable.mtl
usemtl palette

# normals
vn -1 0 0
vn 1 0 0
vn 0 0 1
vn 0 0 -1
vn 0 -1 0
vn 0 1 0

# texcoords
vt 0.400391 0.5
vt 0.970703 0.5

# verts
v -7.5 0 7.5
v -7.5 0 1.5
v -7.5 0 -7.5
v -7.5 1 7.5
v -7.5 1 1.5
v -7.5 1 -7.5
v -1.5 1 -3.5
v -1.5 1 -4.5
v -1.5 1 -6.5
v -1.5 1 -7.5
v -1.5 3 -4.5
v -1.5 3 -6.5
v -1.5 4 -3.5
v -1.5 4 -7.5
v 3.5 1 -3.5
v 3.5 1 -4.5
v 3.5 1 -6.5
v 3.5 1 -7.5
v 3.5 3 -3.5
v 3.5 3 -4.5
v 3.5 3 -6.5
v 3.5 3 -7.5
v -0.5 1 -3.5
v -0.5 1 -4.5
v -0.5 1 -6.5
v -0.5 1 -7.5
v -0.5 3 -3.5
v -0.5 3 -4.5
v -0.5 3 -6.5
v -0.5 3 -7.5
v 4.5 1 -3.5
v 4.5 1 -4.5
v 4.5 1 -6.5
v 4.5 1 -7.5
v 4.5 3 -4.5
v 4.5 3 -6.5
v 4.5 4 -3.5
v 4.5 4 -7.5
v 7.5 0 7.5
v 7.5 0 1.5
v 7.5 0 -7.5
v 7.5 1 7.5
v 7.5 1 1.5
v 7.5 1 -7.5
v -7.5 0 7.5
v -7.5 1 7.5
v 7.5 0 7.5
v 7.5 1 7.5
v -1.5 1 -3.5
v -1.5 4 -3.5
v -0.5 1 -3.5
v -0.5 3 -3.5
v 3.5 1 -3.5
v 3.5 3 -3.5
v 4.5 1 -3.5
v 4.5 4 -3.5
v -1.5 1 -6.5
v -1.5 3 -6.5
v -0.5 1 -6.5
v -0.5 3 -6.5
v 3.5 1 -6.5
v 3.5 3 -6.5
v 4.5 1 -6.5
v 4.5 3 -6.5
v -1.5 1 -4.5
v -1.5 3 -4.5
v -0.5 1 -4.5
v -0.5 3 -4.5
v 3.5 1 -4.5
v 3.5 3 -4.5
v 4.5 1 -4.5
v 4.5 3 -4.5
v -7.5 0 -7.5
v -7.5 1 -7.5
v -1.5 1 -7.5
v -1.5 4 -7.5
v -0.5 1 -7.5
v -0.5 3 -7.5
v 3.5 1 -7.5
v 3.5 3 -7.5
v 4.5 1 -7.5
v 4.5 4 -7.5
v 7.5 0 -7.5
v 7.5 1 -7.5
v -7.5 0 7.5
v 7.5 0 7.5
v -7.5 0 1.5
v 7.5 0 1.5
v -7.5 0 -7.5
v 7.5 0 -7.5
v -0.5 3 -3.5
v 3.5 3 -3.5
v -1.5 3 -4.5
v -0.5 3 -4.5
v 3.5 3 -4.5
v 4.5 3 -4.5
v -1.5 3 -6.5
v -0.5 3 -6.5
v 3.5 3 -6.5
v 4.5 3 -6.5
v -0.5 3 -7.5
v 3.5 3 -7.5
v -7.5 1 7.5
v 7.5 1 7.5
v -7.5 1 1.5
v 7.5 1 1.5
v -1.5 1 -3.5
v -0.5 1 -3.5
v 3.5 1 -3.5
v 4.5 1 -3.5
v -1.5 1 -4.5
v -0.5 1 -4.5
v 3.5 1 -4.5
v 4.5 1 -4.5
v -1.5 1 -6.5
v -0.5 1 -6.5
v 3.5 1 -6.5
v 4.5 1 -6.5
v -7.5 1 -7.5
v -1.5 1 -7.5
v -0.5 1 -7.5
v 3.5 1 -7.5
v 4.5 1 -7.5
v 7.5 1 -7.5
v -1.5 4 -3.5
v 4.5 4 -3.5
v -1.5 4 -7.5
v 4.5 4 -7.5

# faces
f 4/2/1 2/2/1 1/2/1
f 5/1/1 3/1/1 2/1/1
f 5/2/1 2/2/1 4/2/1
f 6/1/1 3/1/1 5/1/1
f 11/2/1 8/2/1 7/2/1
f 12/2/1 10/2/1 9/2/1
f 13/2/1 11/2/1 7/2/1
f 13/2/1 12/2/1 11/2/1
f 14/2/1 10/2/1 12/2/1
f 14/2/1 12/2/1 13/2/1
f 19/2/1 16/2/1 15/2/1
f 20/2/1 16/2/1 19/2/1
f 21/2/1 18/2/1 17/2/1
f 22/2/1 18/2/1 21/2/1
f 23/2/2 24/2/2 27/2/2
f 27/2/2 24/2/2 28/2/2
f 25/2/2 26/2/2 29/2/2
f 29/2/2 26/2/2 30/2/2
f 31/2/2 32/2/2 35/2/2
f 33/2/2 34/2/2 36/2/2
f 31/2/2 35/2/2 37/2/2
f 35/2/2 36/2/2 37/2/2
f 36/2/2 34/2/2 38/2/2
f 37/2/2 36/2/2 38/2/2
f 39/2/2 40/2/2 42/2/2
f 40/1/2 41/1/2 43/1/2
f 42/2/2 40/2/2 43/2/2
f 43/1/2 41/1/2 44/1/2
f 47/2/3 46/2/3 45/2/3
f 48/2/3 46/2/3 47/2/3
f 51/2/3 50/2/3 49/2/3
f 52/2/3 50/2/3 51/2/3
f 54/2/3 50/2/3 52/2/3
f 55/2/3 54/2/3 53/2/3
f 56/2/3 50/2/3 54/2/3
f 56/2/3 54/2/3 55/2/3
f 59/2/3 58/2/3 57/2/3
f 60/2/3 58/2/3 59/2/3
f 63/2/3 62/2/3 61/2/3
f 64/2/3 62/2/3 63/2/3
f 65/2/4 66/2/4 67/2/4
f 67/2/4 66/2/4 68/2/4
f 69/2/4 70/2/4 71/2/4
f 71/2/4 70/2/4 72/2/4
f 73/1/4 74/1/4 75/1/4
f 73/1/4 75/1/4 77/1/4
f 75/2/4 76/2/4 77/2/4
f 77/2/4 76/2/4 78/2/4
f 73/1/4 77/1/4 79/1/4
f 78/2/4 76/2/4 80/2/4
f 73/1/4 79/1/4 81/1/4
f 79/2/4 80/2/4 81/2/4
f 80/2/4 76/2/4 82/2/4
f 81/2/4 80/2/4 82/2/4
f 73/1/4 81/1/4 83/1/4
f 83/1/4 81/1/4 84/1/4
f 87/2/5 86/2/5 85/2/5
f 88/2/5 86/2/5 87/2/5
f 89/1/5 88/1/5 87/1/5
f 90/1/5 88/1/5 89/1/5
f 94/2/5 92/2/5 91/2/5
f 95/2/5 92/2/5 94/2/5
f 97/2/5 94/2/5 93/2/5
f 97/2/5 96/2/5 95/2/5
f 97/2/5 95/2/5 94/2/5
f 98/2/5 96/2/5 97/2/5
f 99/2/5 96/2/5 98/2/5
f 100/2/5 96/2/5 99/2/5
f 101/2/5 99/2/5 98/2/5
f 102/2/5 99/2/5 101/2/5
f 103/2/6 104/2/6 105/2/6
f 105/2/6 104/2/6 106/2/6
f 105/1/6 106/1/6 107/1/6
f 107/1/6 106/1/6 108/1/6
f 108/1/6 106/1/6 109/1/6
f 109/1/6 106/1/6 110/1/6
f 105/1/6 107/1/6 111/1/6
f 108/1/6 109/1/6 112/1/6
f 112/1/6 109/1/6 113/1/6
f 110/1/6 106/1/6 114/1/6
f 112/1/6 113/1/6 115/1/6
f 113/1/6 114/1/6 115/1/6
f 105/1/6 111/1/6 115/1/6
f 111/1/6 112/1/6 115/1/6
f 115/1/6 114/1/6 116/1/6
f 116/1/6 114/1/6 117/1/6
f 114/1/6 106/1/6 118/1/6
f 117/1/6 114/1/6 118/1/6
f 105/1/6 115/1/6 119/1/6
f 119/1/6 115/1/6 120/1/6
f 116/1/6 117/1/6 121/1/6
f 121/1/6 117/1/6 122/1/6
f 118/1/6 106/1/6 123/1/6
f 123/1/6 106/1/6 124/1/6
f 125/2/6 126/2/6 127/2/6
f 127/2/6 126/2/6 128/2/6
