# Blender v2.79 (sub 0) OBJ File: ''
# www.blender.org
mtllib blender-test.mtl
o Cylinder
v 3.179780 2.471708 3.619982
v 3.179780 3.194739 3.619982
v 3.250309 2.471708 3.626928
v 3.250309 3.194739 3.626928
v 3.318127 2.471708 3.647501
v 3.318127 3.194739 3.647501
v 3.380628 2.471708 3.680908
v 3.380628 3.194739 3.680908
v 3.435411 2.471708 3.725868
v 3.435411 3.194739 3.725868
v 3.480370 2.471708 3.780650
v 3.480370 3.194739 3.780650
v 3.513777 2.471708 3.843152
v 3.513777 3.194739 3.843152
v 3.534350 2.471708 3.910969
v 3.534350 3.194739 3.910969
v 3.541296 2.471708 3.981498
v 3.541296 3.194739 3.981498
v 3.534350 2.471708 4.052026
v 3.534350 3.194739 4.052026
v 3.513777 2.471708 4.119844
v 3.513777 3.194739 4.119844
v 3.480370 2.471708 4.182345
v 3.480370 3.194739 4.182345
v 3.435411 2.471708 4.237128
v 3.435411 3.194739 4.237128
v 3.380628 2.471708 4.282087
v 3.380628 3.194739 4.282087
v 3.318126 2.471708 4.315495
v 3.318126 3.194739 4.315495
v 3.250309 2.471708 4.336067
v 3.250309 3.194739 4.336067
v 3.179780 2.471708 4.343014
v 3.179780 3.194739 4.343014
v 3.109252 2.471708 4.336067
v 3.109252 3.194739 4.336067
v 3.041434 2.471708 4.315495
v 3.041434 3.194739 4.315495
v 2.978933 2.471708 4.282087
v 2.978933 3.194739 4.282087
v 2.924150 2.471708 4.237128
v 2.924150 3.194739 4.237128
v 2.879191 2.471708 4.182345
v 2.879191 3.194739 4.182345
v 2.845783 2.471708 4.119843
v 2.845783 3.194739 4.119843
v 2.825211 2.471708 4.052026
v 2.825211 3.194739 4.052026
v 2.818265 2.471708 3.981498
v 2.818265 3.194739 3.981498
v 2.825211 2.471708 3.910969
v 2.825211 3.194739 3.910969
v 2.845784 2.471708 3.843151
v 2.845784 3.194739 3.843151
v 2.879191 2.471708 3.780650
v 2.879191 3.194739 3.780650
v 2.924150 2.471708 3.725867
v 2.924150 3.194739 3.725867
v 2.978934 2.471708 3.680908
v 2.978934 3.194739 3.680908
v 3.041435 2.471708 3.647501
v 3.041435 3.194739 3.647501
v 3.109253 2.471708 3.626928
v 3.109253 3.194739 3.626928
v 2.874542 2.464095 4.455081
v 3.597574 2.464095 4.455081
v 2.874542 2.464095 3.732049
v 3.597574 2.464095 3.732049
vn 0.0000 1.0000 0.0000
vn 0.0000 -0.6857 -0.7279
vn 0.0000 0.6857 -0.7279
vn 0.1420 0.6857 -0.7139
vn 0.1420 -0.6857 -0.7139
vn 0.2785 0.6857 -0.6725
vn 0.2785 -0.6857 -0.6725
vn 0.4044 0.6857 -0.6052
vn 0.4044 -0.6857 -0.6052
vn 0.5147 0.6857 -0.5147
vn 0.5147 -0.6857 -0.5147
vn 0.6052 0.6857 -0.4044
vn 0.6052 -0.6857 -0.4044
vn 0.6725 0.6857 -0.2785
vn 0.6725 -0.6857 -0.2785
vn 0.7139 0.6857 -0.1420
vn 0.7139 -0.6857 -0.1420
vn 0.7279 0.6857 0.0000
vn 0.7279 -0.6857 0.0000
vn 0.7139 0.6857 0.1420
vn 0.7139 -0.6857 0.1420
vn 0.6725 0.6857 0.2785
vn 0.6725 -0.6857 0.2785
vn 0.6052 0.6857 0.4044
vn 0.6052 -0.6857 0.4044
vn 0.5147 0.6857 0.5147
vn 0.5147 -0.6857 0.5147
vn 0.4044 0.6857 0.6052
vn 0.4044 -0.6857 0.6052
vn 0.2785 0.6857 0.6725
vn 0.2785 -0.6857 0.6725
vn 0.1420 0.6857 0.7139
vn 0.1420 -0.6857 0.7139
vn 0.0000 0.6857 0.7279
vn 0.0000 -0.6857 0.7279
vn -0.1420 0.6857 0.7139
vn -0.1420 -0.6857 0.7139
vn -0.2785 0.6857 0.6725
vn -0.2785 -0.6857 0.6725
vn -0.4044 0.6857 0.6052
vn -0.4044 -0.6857 0.6052
vn -0.5147 0.6857 0.5147
vn -0.5147 -0.6857 0.5147
vn -0.6052 0.6857 0.4044
vn -0.6052 -0.6857 0.4044
vn -0.6725 0.6857 0.2785
vn -0.6725 -0.6857 0.2785
vn -0.7139 0.6857 0.1420
vn -0.7139 -0.6857 0.1420
vn -0.7279 0.6857 0.0000
vn -0.7279 -0.6857 0.0000
vn -0.7139 0.6857 -0.1420
vn -0.7139 -0.6857 -0.1420
vn -0.6725 0.6857 -0.2785
vn -0.6725 -0.6857 -0.2785
vn -0.6052 0.6857 -0.4044
vn -0.6052 -0.6857 -0.4044
vn -0.5147 0.6857 -0.5147
vn -0.5147 -0.6857 -0.5147
vn -0.4044 0.6857 -0.6052
vn -0.4044 -0.6857 -0.6052
vn -0.2785 0.6857 -0.6725
vn -0.2785 -0.6857 -0.6725
vn -0.1420 0.6857 -0.7139
vn -0.1420 -0.6857 -0.7139
usemtl None
s off
f 65//1 66//1 68//1 67//1
s 1
f 1//2 2//3 4//4 3//5
f 3//5 4//4 6//6 5//7
f 5//7 6//6 8//8 7//9
f 7//9 8//8 10//10 9//11
f 9//11 10//10 12//12 11//13
f 11//13 12//12 14//14 13//15
f 13//15 14//14 16//16 15//17
f 15//17 16//16 18//18 17//19
f 17//19 18//18 20//20 19//21
f 19//21 20//20 22//22 21//23
f 21//23 22//22 24//24 23//25
f 23//25 24//24 26//26 25//27
f 25//27 26//26 28//28 27//29
f 27//29 28//28 30//30 29//31
f 29//31 30//30 32//32 31//33
f 31//33 32//32 34//34 33//35
f 33//35 34//34 36//36 35//37
f 35//37 36//36 38//38 37//39
f 37//39 38//38 40//40 39//41
f 39//41 40//40 42//42 41//43
f 41//43 42//42 44//44 43//45
f 43//45 44//44 46//46 45//47
f 45//47 46//46 48//48 47//49
f 47//49 48//48 50//50 49//51
f 49//51 50//50 52//52 51//53
f 51//53 52//52 54//54 53//55
f 53//55 54//54 56//56 55//57
f 55//57 56//56 58//58 57//59
f 57//59 58//58 60//60 59//61
f 59//61 60//60 62//62 61//63
f 4//4 2//3 64//64 62//62 60//60 58//58 56//56 54//54 52//52 50//50 48//48 46//46 44//44 42//42 40//40 38//38 36//36 34//34 32//32 30//30 28//28 26//26 24//24 22//22 20//20 18//18 16//16 14//14 12//12 10//10 8//8 6//6
f 61//63 62//62 64//64 63//65
f 63//65 64//64 2//3 1//2
f 1//2 3//5 5//7 7//9 9//11 11//13 13//15 15//17 17//19 19//21 21//23 23//25 25//27 27//29 29//31 31//33 33//35 35//37 37//39 39//41 41//43 43//45 45//47 47//49 49//51 51//53 53//55 55//57 57//59 59//61 61//63 63//65
