# MagicaVoxel @ Ephtracy

# material
mtllib object2.mtl
usemtl palette

# normals
vn -1 0 0
vn 1 0 0
vn 0 0 1
vn 0 0 -1
vn 0 -1 0
vn 0 1 0

# texcoords
vt 0.751953 0.5
vt 0.974609 0.5

# verts
v -60 0 60
v -60 0 -60
v -60 1 60
v -60 1 -60
v -25 1 32
v -25 1 -13
v -25 18 32
v -25 18 -13
v -24 18 -12
v -24 18 -13
v -24 19 -12
v -24 19 -13
v 14 1 16
v 14 1 15
v 14 1 9
v 14 1 8
v 14 4 15
v 14 4 9
v 14 5 16
v 14 5 8
v 17 1 16
v 17 1 15
v 17 1 9
v 17 1 8
v 17 4 16
v 17 4 15
v 17 4 9
v 17 4 8
v 24 1 19
v 24 1 18
v 24 2 19
v 24 2 18
v -24 1 32
v -24 1 -12
v -24 18 32
v -24 18 -12
v 9 1 -12
v 9 1 -13
v 9 19 -12
v 9 19 -13
v 15 1 16
v 15 1 15
v 15 1 9
v 15 1 8
v 15 4 16
v 15 4 15
v 15 4 9
v 15 4 8
v 18 1 16
v 18 1 15
v 18 1 9
v 18 1 8
v 18 4 15
v 18 4 9
v 18 5 16
v 18 5 8
v 25 1 19
v 25 1 18
v 25 2 19
v 25 2 18
v 60 0 60
v 60 0 -60
v 60 1 60
v 60 1 -60
v -60 0 60
v -60 1 60
v 60 0 60
v 60 1 60
v -25 1 32
v -25 18 32
v -24 1 32
v -24 18 32
v 24 1 19
v 24 2 19
v 25 1 19
v 25 2 19
v 14 1 16
v 14 5 16
v 15 1 16
v 15 4 16
v 17 1 16
v 17 4 16
v 18 1 16
v 18 5 16
v 14 1 9
v 14 4 9
v 15 1 9
v 15 4 9
v 17 1 9
v 17 4 9
v 18 1 9
v 18 4 9
v -24 1 -12
v -24 18 -12
v -24 19 -12
v 9 1 -12
v 9 19 -12
v 24 1 18
v 24 2 18
v 25 1 18
v 25 2 18
v 14 1 15
v 14 4 15
v 15 1 15
v 15 4 15
v 17 1 15
v 17 4 15
v 18 1 15
v 18 4 15
v 14 1 8
v 14 5 8
v 15 1 8
v 15 4 8
v 17 1 8
v 17 4 8
v 18 1 8
v 18 5 8
v -25 1 -13
v -25 18 -13
v -24 18 -13
v -24 19 -13
v 9 1 -13
v 9 19 -13
v -60 0 -60
v -60 1 -60
v 60 0 -60
v 60 1 -60
v -60 0 60
v 60 0 60
v -60 0 -60
v 60 0 -60
v 15 4 16
v 17 4 16
v 14 4 15
v 15 4 15
v 17 4 15
v 18 4 15
v 14 4 9
v 15 4 9
v 17 4 9
v 18 4 9
v 15 4 8
v 17 4 8
v -60 1 60
v 60 1 60
v -25 1 32
v -24 1 32
v 24 1 19
v 25 1 19
v 24 1 18
v 25 1 18
v 14 1 16
v 15 1 16
v 17 1 16
v 18 1 16
v 14 1 15
v 15 1 15
v 17 1 15
v 18 1 15
v 14 1 9
v 15 1 9
v 17 1 9
v 18 1 9
v 14 1 8
v 15 1 8
v 17 1 8
v 18 1 8
v -24 1 -12
v 9 1 -12
v -25 1 -13
v 9 1 -13
v -60 1 -60
v 60 1 -60
v 24 2 19
v 25 2 19
v 24 2 18
v 25 2 18
v 14 5 16
v 18 5 16
v 14 5 8
v 18 5 8
v -25 18 32
v -24 18 32
v -24 18 -12
v -25 18 -13
v -24 18 -13
v -24 19 -12
v 9 19 -12
v -24 19 -13
v 9 19 -13

# faces
f 3/1/1 2/1/1 1/1/1
f 4/1/1 2/1/1 3/1/1
f 7/2/1 6/2/1 5/2/1
f 8/2/1 6/2/1 7/2/1
f 11/2/1 10/2/1 9/2/1
f 12/2/1 10/2/1 11/2/1
f 17/2/1 14/2/1 13/2/1
f 18/2/1 16/2/1 15/2/1
f 19/2/1 17/2/1 13/2/1
f 19/2/1 18/2/1 17/2/1
f 20/2/1 16/2/1 18/2/1
f 20/2/1 18/2/1 19/2/1
f 25/2/1 22/2/1 21/2/1
f 26/2/1 22/2/1 25/2/1
f 27/2/1 24/2/1 23/2/1
f 28/2/1 24/2/1 27/2/1
f 31/2/1 30/2/1 29/2/1
f 32/2/1 30/2/1 31/2/1
f 33/2/2 34/2/2 35/2/2
f 35/2/2 34/2/2 36/2/2
f 37/2/2 38/2/2 39/2/2
f 39/2/2 38/2/2 40/2/2
f 41/2/2 42/2/2 45/2/2
f 45/2/2 42/2/2 46/2/2
f 43/2/2 44/2/2 47/2/2
f 47/2/2 44/2/2 48/2/2
f 49/2/2 50/2/2 53/2/2
f 51/2/2 52/2/2 54/2/2
f 49/2/2 53/2/2 55/2/2
f 53/2/2 54/2/2 55/2/2
f 54/2/2 52/2/2 56/2/2
f 55/2/2 54/2/2 56/2/2
f 57/2/2 58/2/2 59/2/2
f 59/2/2 58/2/2 60/2/2
f 61/1/2 62/1/2 63/1/2
f 63/1/2 62/1/2 64/1/2
f 67/1/3 66/1/3 65/1/3
f 68/1/3 66/1/3 67/1/3
f 71/2/3 70/2/3 69/2/3
f 72/2/3 70/2/3 71/2/3
f 75/2/3 74/2/3 73/2/3
f 76/2/3 74/2/3 75/2/3
f 79/2/3 78/2/3 77/2/3
f 80/2/3 78/2/3 79/2/3
f 82/2/3 78/2/3 80/2/3
f 83/2/3 82/2/3 81/2/3
f 84/2/3 78/2/3 82/2/3
f 84/2/3 82/2/3 83/2/3
f 87/2/3 86/2/3 85/2/3
f 88/2/3 86/2/3 87/2/3
f 91/2/3 90/2/3 89/2/3
f 92/2/3 90/2/3 91/2/3
f 96/2/3 94/2/3 93/2/3
f 96/2/3 95/2/3 94/2/3
f 97/2/3 95/2/3 96/2/3
f 98/2/4 99/2/4 100/2/4
f 100/2/4 99/2/4 101/2/4
f 102/2/4 103/2/4 104/2/4
f 104/2/4 103/2/4 105/2/4
f 106/2/4 107/2/4 108/2/4
f 108/2/4 107/2/4 109/2/4
f 110/2/4 111/2/4 112/2/4
f 112/2/4 111/2/4 113/2/4
f 113/2/4 111/2/4 115/2/4
f 114/2/4 115/2/4 116/2/4
f 115/2/4 111/2/4 117/2/4
f 116/2/4 115/2/4 117/2/4
f 118/2/4 119/2/4 120/2/4
f 118/2/4 120/2/4 122/2/4
f 120/2/4 121/2/4 122/2/4
f 122/2/4 121/2/4 123/2/4
f 124/1/4 125/1/4 126/1/4
f 126/1/4 125/1/4 127/1/4
f 130/1/5 129/1/5 128/1/5
f 131/1/5 129/1/5 130/1/5
f 135/2/5 133/2/5 132/2/5
f 136/2/5 133/2/5 135/2/5
f 138/2/5 135/2/5 134/2/5
f 138/2/5 137/2/5 136/2/5
f 138/2/5 136/2/5 135/2/5
f 139/2/5 137/2/5 138/2/5
f 140/2/5 137/2/5 139/2/5
f 141/2/5 137/2/5 140/2/5
f 142/2/5 140/2/5 139/2/5
f 143/2/5 140/2/5 142/2/5
f 144/1/6 145/1/6 146/1/6
f 146/1/6 145/1/6 147/1/6
f 147/1/6 145/1/6 148/1/6
f 148/1/6 145/1/6 149/1/6
f 147/1/6 148/1/6 150/1/6
f 149/1/6 145/1/6 151/1/6
f 147/1/6 150/1/6 152/1/6
f 150/1/6 151/1/6 152/1/6
f 152/1/6 151/1/6 153/1/6
f 153/1/6 151/1/6 154/1/6
f 154/1/6 151/1/6 155/1/6
f 147/1/6 152/1/6 156/1/6
f 153/1/6 154/1/6 157/1/6
f 157/1/6 154/1/6 158/1/6
f 155/1/6 151/1/6 159/1/6
f 157/1/6 158/1/6 160/1/6
f 158/1/6 159/1/6 160/1/6
f 147/1/6 156/1/6 160/1/6
f 156/1/6 157/1/6 160/1/6
f 160/1/6 159/1/6 161/1/6
f 161/1/6 159/1/6 162/1/6
f 159/1/6 151/1/6 163/1/6
f 162/1/6 159/1/6 163/1/6
f 147/1/6 160/1/6 164/1/6
f 161/1/6 162/1/6 165/1/6
f 165/1/6 162/1/6 166/1/6
f 163/1/6 151/1/6 167/1/6
f 147/1/6 164/1/6 168/1/6
f 166/1/6 167/1/6 168/1/6
f 165/1/6 166/1/6 168/1/6
f 164/1/6 165/1/6 168/1/6
f 168/1/6 167/1/6 169/1/6
f 144/1/6 146/1/6 170/1/6
f 169/1/6 167/1/6 171/1/6
f 144/1/6 170/1/6 172/1/6
f 170/1/6 171/1/6 172/1/6
f 171/1/6 167/1/6 173/1/6
f 172/1/6 171/1/6 173/1/6
f 151/1/6 145/1/6 173/1/6
f 167/1/6 151/1/6 173/1/6
f 174/2/6 175/2/6 176/2/6
f 176/2/6 175/2/6 177/2/6
f 178/2/6 179/2/6 180/2/6
f 180/2/6 179/2/6 181/2/6
f 182/2/6 183/2/6 184/2/6
f 182/2/6 184/2/6 185/2/6
f 185/2/6 184/2/6 186/2/6
f 187/2/6 188/2/6 189/2/6
f 189/2/6 188/2/6 190/2/6
